# xmcd CD database file
#
# Track frame offsets:
#	182
#	16905
#	34540
#	45900
#	67182
#	88112
#	125297
#	156885
#	171730
#	187587
#
# Disc length: 3016 seconds
#
# Revision: 0
# Processed by: cddbd v1.4PL0 Copyright (c) Steve Scherf et al.
# Submitted via: Feurio! 1.65 - http://www.feurio.com
#
DISCID=780bc60a
DTITLE=Denny Newman - Noah's Great Rainbow
DYEAR=1995
DGENRE=blues
TTITLE0=In These Crying Times
TTITLE1=Yes! I'm Stuck To Her
TTITLE2=Small Town
TTITLE3=Noah's Great Rainbow
TTITLE4=Sign Of The Times
TTITLE5=The Girl
TTITLE6=1995, Modern Reservation Blues
TTITLE7=This World
TTITLE8=Much Too Blue (To Be In Love)
TTITLE9=Blues From The Witch County
EXTD=
EXTT0=
EXTT1=
EXTT2=
EXTT3=
EXTT4=
EXTT5=
EXTT6=
EXTT7=
EXTT8=
EXTT9=
PLAYORDER=
